<?xml version="1.0" encoding="UTF-8" standalone="no"?>
<!DOCTYPE svg PUBLIC "-//W3C//DTD SVG 1.1//EN" "http://www.w3.org/Graphics/SVG/1.1/DTD/svg11.dtd">
<svg width="100%" height="100%" viewBox="0 0 1070 367" version="1.1" xmlns="http://www.w3.org/2000/svg" xmlns:xlink="http://www.w3.org/1999/xlink" xml:space="preserve" xmlns:serif="http://www.serif.com/" style="fill-rule:evenodd;clip-rule:evenodd;stroke-linejoin:round;stroke-miterlimit:2;">
    <g transform="matrix(1,0,0,1,-131.931,-389.192)">
        <g transform="matrix(0.665476,0,0,0.665476,117.898,-32.9937)">
            <path d="M371.811,1103.11C368.958,1103.11 366.406,1102.95 364.156,1102.62C361.907,1102.29 359.712,1101.99 357.571,1101.71C355.431,1101.44 353.182,1101.33 350.822,1101.38C348.462,1101.44 345.691,1101.9 342.509,1102.78L343.332,1097.02C345.636,1096.03 348.243,1095.15 351.151,1094.39C354.06,1093.62 356.995,1092.96 359.958,1092.41C362.922,1091.86 365.72,1091.45 368.354,1091.18C370.988,1090.9 373.183,1090.76 374.939,1090.76C375.927,1090.76 376.585,1091.39 376.914,1092.66C377.244,1093.92 377.244,1095.35 376.914,1096.94C376.585,1098.53 375.982,1099.96 375.104,1101.22C374.226,1102.48 373.128,1103.11 371.811,1103.11ZM262.338,1103.11C260.802,1103.11 259.704,1102.48 259.046,1101.22C258.387,1099.96 258.223,1098.53 258.552,1096.94C258.881,1095.35 259.704,1093.92 261.021,1092.66C262.338,1091.39 264.149,1090.76 266.454,1090.76C269.088,1090.76 272.408,1089.47 276.413,1086.9C280.419,1084.32 284.754,1080.78 289.418,1076.28C294.083,1071.78 298.747,1066.59 303.411,1060.72C308.076,1054.85 312.383,1048.57 316.334,1041.87C320.285,1035.18 323.522,1028.43 326.047,1021.62L326.376,1020.8C327.144,1018.61 328.049,1017.18 329.092,1016.52C330.135,1015.86 331.699,1015.53 333.784,1015.53C337.186,1015.53 339.353,1016.05 340.286,1017.1C341.219,1018.14 341.301,1019.76 340.533,1021.95L330.327,1053.07C336.802,1043.96 342.673,1036.6 347.941,1031.01C353.209,1025.41 358.148,1021.32 362.757,1018.74C367.366,1016.16 371.866,1014.87 376.256,1014.87C381.743,1014.87 386.078,1016.69 389.261,1020.31C392.444,1023.93 394.035,1029.03 394.035,1035.62C394.035,1041.76 393.047,1048.02 391.072,1054.38C389.096,1060.75 386.325,1066.84 382.758,1072.66C379.192,1078.47 375.021,1083.66 370.247,1088.21C365.473,1092.77 360.233,1096.39 354.526,1099.08C348.819,1101.77 342.893,1103.11 336.747,1103.11C332.686,1103.11 328.982,1102.45 325.635,1101.14C322.288,1099.82 319.187,1098.12 316.334,1096.03L297.732,1153.32C294.988,1161.77 292.272,1168.36 289.583,1173.08C286.894,1177.79 284.013,1181.09 280.941,1182.95C277.868,1184.82 274.465,1185.75 270.734,1185.75C268.649,1185.75 266.426,1185.26 264.067,1184.27C261.707,1183.28 259.704,1181.58 258.058,1179.17C256.412,1176.75 255.589,1173.4 255.589,1169.12C255.589,1166.38 256.083,1163.34 257.07,1159.99C258.058,1156.64 259.512,1152.94 261.433,1148.88C263.354,1144.82 265.741,1140.48 268.594,1135.87C271.447,1131.26 274.712,1126.35 278.389,1121.14C282.065,1115.92 286.099,1110.49 290.489,1104.84C294.878,1099.19 299.598,1093.34 304.646,1087.31L311.231,1067.22C307.39,1072.6 303.384,1077.49 299.213,1081.88C295.043,1086.27 290.873,1090.05 286.702,1093.23C282.532,1096.42 278.389,1098.86 274.273,1100.56C270.158,1102.26 266.18,1103.11 262.338,1103.11ZM269.582,1169.62C269.582,1170.93 269.829,1171.89 270.322,1172.5C270.816,1173.1 271.557,1173.4 272.545,1173.4C273.313,1173.4 274.081,1173.1 274.85,1172.5C275.618,1171.89 276.413,1170.77 277.237,1169.12C278.06,1167.48 279.075,1165.09 280.282,1161.96C281.489,1158.84 282.916,1154.69 284.562,1149.53L296.415,1112.99C293.561,1117.27 290.9,1121.41 288.431,1125.42C285.961,1129.42 283.712,1133.24 281.681,1136.86C279.651,1140.48 277.895,1143.91 276.413,1147.15C274.932,1150.38 273.697,1153.38 272.709,1156.12C271.722,1158.86 270.954,1161.36 270.405,1163.61C269.856,1165.86 269.582,1167.86 269.582,1169.62ZM321.108,1084.34C323.742,1086.32 326.431,1087.8 329.174,1088.79C331.918,1089.78 334.772,1090.27 337.735,1090.27C342.344,1090.27 346.734,1089.12 350.904,1086.81C355.075,1084.51 358.888,1081.46 362.345,1077.68C365.803,1073.89 368.793,1069.69 371.317,1065.08C373.842,1060.47 375.79,1055.78 377.161,1051.01C378.533,1046.24 379.219,1041.76 379.219,1037.59C379.219,1034.41 378.588,1032.02 377.326,1030.43C376.064,1028.84 374.171,1028.04 371.647,1028.04C369.781,1028.04 367.778,1028.59 365.638,1029.69C363.498,1030.79 361.056,1032.63 358.312,1035.2C355.569,1037.78 352.413,1041.24 348.847,1045.58C345.28,1049.91 341.219,1055.26 336.665,1061.63C332.11,1067.99 326.925,1075.56 321.108,1084.34Z" style="fill:rgb(249,110,67);fill-rule:nonzero;"/>
            <path d="M371.811,1103.11C369.726,1103.11 368.327,1102.48 367.613,1101.22C366.9,1099.96 366.735,1098.53 367.12,1096.94C367.504,1095.35 368.354,1093.92 369.671,1092.66C370.988,1091.39 372.689,1090.76 374.774,1090.76C376.75,1090.76 379.192,1089.69 382.1,1087.55C385.008,1085.41 388.603,1081.96 392.883,1077.18C397.163,1072.41 402.321,1066.13 408.357,1058.33C414.393,1050.54 421.527,1040.99 429.758,1029.69C431.075,1027.93 432.474,1027.22 433.956,1027.55C435.437,1027.88 436.48,1028.81 437.083,1030.35C437.687,1031.88 437.33,1033.59 436.013,1035.45C427.014,1048.62 419.195,1059.57 412.555,1068.29C405.915,1077.02 400.153,1083.93 395.27,1089.04C390.386,1094.14 386.078,1097.76 382.347,1099.9C378.616,1102.04 375.104,1103.11 371.811,1103.11Z" style="fill:rgb(249,110,67);fill-rule:nonzero;"/>
            <path d="M483.095,1103.11C478.266,1103.11 474.672,1102.21 472.312,1100.39C469.953,1098.58 468.498,1096.28 467.95,1093.48C467.401,1090.68 467.401,1087.72 467.95,1084.59C468.498,1081.46 469.212,1078.58 470.09,1075.95L481.284,1043.68C482.272,1040.83 482.903,1038.22 483.177,1035.86C483.452,1033.5 483.067,1031.61 482.025,1030.18C480.982,1028.76 478.924,1028.04 475.852,1028.04C472.12,1028.04 467.977,1029.69 463.423,1032.98C458.868,1036.28 454.176,1040.88 449.348,1046.81C444.519,1052.74 439.772,1059.73 435.108,1067.8C430.444,1075.87 426.136,1084.73 422.185,1094.39L421.362,1079.57C425.532,1069.36 429.977,1060.28 434.696,1052.33C439.415,1044.37 444.354,1037.59 449.512,1032C454.67,1026.4 459.911,1022.14 465.234,1019.24C470.556,1016.33 475.906,1014.87 481.284,1014.87C486.332,1014.87 490.256,1016.11 493.054,1018.58C495.853,1021.05 497.389,1024.7 497.664,1029.53C497.938,1034.35 496.868,1040.34 494.454,1047.47L484.741,1075.78C482.766,1081.49 481.86,1085.41 482.025,1087.55C482.189,1089.69 483.589,1090.76 486.223,1090.76C487.759,1090.76 488.884,1091.39 489.597,1092.66C490.311,1093.92 490.585,1095.35 490.42,1096.94C490.256,1098.53 489.57,1099.96 488.363,1101.22C487.156,1102.48 485.4,1103.11 483.095,1103.11ZM413.131,1102.78C411.375,1102.78 409.729,1102.4 408.192,1101.63C406.656,1100.86 406.217,1099.43 406.875,1097.35L448.689,969.274C452.75,956.434 457.277,947.105 462.27,941.289C467.264,935.472 473.272,932.564 480.296,932.564C483.918,932.564 487.018,933.387 489.597,935.033C492.176,936.679 494.207,938.957 495.688,941.865C497.17,944.773 497.911,948.093 497.911,951.824C497.911,954.788 497.472,957.943 496.594,961.29C495.716,964.637 494.481,968.149 492.89,971.826C491.298,975.502 489.323,979.344 486.963,983.349C484.604,987.355 481.86,991.416 478.732,995.531C475.605,999.647 472.175,1003.82 468.444,1008.04C464.712,1012.27 460.624,1016.55 456.179,1020.88C451.735,1025.22 446.988,1029.58 441.94,1033.97L420.868,1098.5C420.429,1099.93 419.661,1101 418.564,1101.71C417.466,1102.42 415.655,1102.78 413.131,1102.78ZM448.031,1015.37C451.543,1011.75 454.862,1008.07 457.99,1004.34C461.118,1000.61 464.026,996.876 466.715,993.144C469.404,989.413 471.846,985.764 474.041,982.197C476.236,978.63 478.074,975.146 479.556,971.744C481.037,968.341 482.189,965.076 483.013,961.949C483.836,958.821 484.247,955.885 484.247,953.141C484.247,951.605 484.028,950.288 483.589,949.191C483.15,948.093 482.491,947.243 481.613,946.639C480.735,946.035 479.638,945.734 478.321,945.734C476.565,945.734 474.864,946.474 473.218,947.956C471.571,949.437 469.87,952.154 468.114,956.105C466.358,960.056 464.273,965.707 461.859,973.061L448.031,1015.37Z" style="fill:rgb(249,110,67);fill-rule:nonzero;"/>
            <path d="M483.095,1103.11C481.558,1103.11 480.406,1102.48 479.638,1101.22C478.87,1099.96 478.568,1098.53 478.732,1096.94C478.897,1095.35 479.583,1093.92 480.79,1092.66C481.997,1091.39 483.753,1090.76 486.058,1090.76C488.911,1090.76 491.93,1089.72 495.112,1087.64C498.295,1085.55 501.56,1082.64 504.907,1078.91C508.254,1075.18 511.684,1070.79 515.196,1065.74C518.708,1060.69 522.275,1055.21 525.896,1049.28C526.774,1047.85 527.981,1047.25 529.518,1047.47C531.054,1047.69 532.316,1048.38 533.304,1049.53C534.292,1050.68 534.347,1051.97 533.469,1053.4C528.75,1061.63 524.278,1068.87 520.052,1075.12C515.827,1081.38 511.711,1086.57 507.706,1090.68C503.7,1094.8 499.694,1097.9 495.688,1099.98C491.683,1102.07 487.485,1103.11 483.095,1103.11Z" style="fill:rgb(249,110,67);fill-rule:nonzero;"/>
            <path d="M552.4,1103.44C545.596,1103.44 539.834,1102.07 535.115,1099.33C530.396,1096.58 526.857,1092.77 524.497,1087.88C522.137,1083 520.958,1077.49 520.958,1071.34C520.958,1065.52 522,1059.35 524.085,1052.82C526.171,1046.29 529.271,1040.14 533.387,1034.38C537.502,1028.62 542.66,1023.93 548.861,1020.31C555.062,1016.69 562.277,1014.87 570.509,1014.87C577.313,1014.87 583.047,1016.16 587.711,1018.74C592.376,1021.32 595.888,1024.94 598.247,1029.61C600.607,1034.27 601.786,1039.68 601.786,1045.82C601.786,1050.21 601.155,1055.01 599.893,1060.23C598.631,1065.44 596.711,1070.6 594.132,1075.7C591.553,1080.81 588.288,1085.44 584.337,1089.61C580.386,1093.78 575.749,1097.13 570.426,1099.65C565.103,1102.18 559.095,1103.44 552.4,1103.44ZM554.046,1090.27C559.424,1090.27 564.143,1088.84 568.204,1085.99C572.264,1083.14 575.667,1079.49 578.41,1075.04C581.154,1070.6 583.239,1065.93 584.666,1061.05C586.093,1056.17 586.806,1051.64 586.806,1047.47C586.806,1043.19 586.093,1039.62 584.666,1036.77C583.239,1033.91 581.209,1031.75 578.575,1030.27C575.941,1028.79 572.813,1028.04 569.192,1028.04C563.704,1028.04 558.875,1029.44 554.705,1032.24C550.535,1035.04 547.05,1038.63 544.251,1043.02C541.453,1047.41 539.34,1052.02 537.914,1056.85C536.487,1061.68 535.774,1066.13 535.774,1070.19C535.774,1074.47 536.514,1078.12 537.996,1081.13C539.477,1084.15 541.59,1086.43 544.334,1087.97C547.077,1089.5 550.315,1090.27 554.046,1090.27Z" style="fill:rgb(249,110,67);fill-rule:nonzero;"/>
            <path d="M608.701,1033.15C604.311,1033.15 600.113,1032.65 596.107,1031.67C592.101,1030.68 588.013,1029.47 583.843,1028.04C582.416,1027.5 581.456,1026.62 580.962,1025.41C580.468,1024.2 580.331,1022.97 580.55,1021.71C580.77,1020.44 581.346,1019.4 582.279,1018.58C583.212,1017.75 584.337,1017.51 585.654,1017.84C589.166,1018.72 592.897,1019.62 596.848,1020.55C600.799,1021.49 604.75,1021.95 608.701,1021.95C613.529,1021.95 618.413,1021.24 623.352,1019.81C628.29,1018.39 633.037,1016.25 637.591,1013.39C642.146,1010.54 646.179,1006.92 649.691,1002.53C650.898,1001.1 652.133,1000.69 653.395,1001.29C654.657,1001.9 655.563,1002.94 656.111,1004.42C656.66,1005.9 656.441,1007.25 655.453,1008.45C650.734,1014.38 645.74,1019.15 640.472,1022.78C635.204,1026.4 629.882,1029.03 624.504,1030.68C619.127,1032.32 613.859,1033.15 608.701,1033.15Z" style="fill:rgb(249,110,67);fill-rule:nonzero;"/>
            <path d="M645.082,1103.11C639.924,1103.11 635.726,1101.93 632.488,1099.57C629.251,1097.21 626.919,1094.08 625.492,1090.19C624.065,1086.29 623.462,1081.93 623.681,1077.1C623.901,1072.27 624.833,1067.39 626.48,1062.45L651.996,985.407C652.654,983.212 653.505,981.785 654.547,981.127C655.59,980.468 657.209,980.139 659.404,980.139C662.806,980.139 664.973,980.661 665.906,981.703C666.839,982.746 666.921,984.365 666.153,986.559L655.617,1018L676.36,1018C677.567,1018 678.417,1018.52 678.911,1019.57C679.405,1020.61 679.323,1022.28 678.664,1024.59C678.116,1026.67 677.293,1028.29 676.195,1029.44C675.098,1030.6 673.945,1031.17 672.738,1031.17L651.337,1031.17L640.472,1063.93C638.936,1068.54 638.085,1072.55 637.921,1075.95C637.756,1079.35 638.085,1082.15 638.908,1084.34C639.732,1086.54 640.966,1088.16 642.612,1089.2C644.259,1090.24 646.124,1090.76 648.21,1090.76C649.746,1090.76 650.898,1091.39 651.667,1092.66C652.435,1093.92 652.709,1095.35 652.49,1096.94C652.27,1098.53 651.557,1099.96 650.35,1101.22C649.142,1102.48 647.386,1103.11 645.082,1103.11Z" style="fill:rgb(249,110,67);fill-rule:nonzero;"/>
            <path d="M645.74,1103.11C644.204,1103.11 643.051,1102.48 642.283,1101.22C641.515,1099.96 641.213,1098.53 641.378,1096.94C641.542,1095.35 642.228,1093.92 643.436,1092.66C644.643,1091.39 646.399,1090.76 648.703,1090.76C651.557,1090.76 654.575,1089.72 657.758,1087.64C660.94,1085.55 664.205,1082.64 667.552,1078.91C670.9,1075.18 674.329,1070.79 677.841,1065.74C681.353,1060.69 684.92,1055.21 688.542,1049.28C689.42,1047.85 690.627,1047.25 692.163,1047.47C693.7,1047.69 694.962,1048.38 695.95,1049.53C696.937,1050.68 696.992,1051.97 696.114,1053.4C691.395,1061.63 686.923,1068.87 682.698,1075.12C678.472,1081.38 674.357,1086.57 670.351,1090.68C666.345,1094.8 662.339,1097.9 658.334,1099.98C654.328,1102.07 650.13,1103.11 645.74,1103.11Z" style="fill:rgb(249,110,67);fill-rule:nonzero;"/>
            <path d="M715.21,1103.44C708.406,1103.44 702.644,1102.07 697.925,1099.33C693.206,1096.58 689.667,1092.77 687.307,1087.88C684.947,1083 683.768,1077.49 683.768,1071.34C683.768,1065.52 684.81,1059.35 686.895,1052.82C688.981,1046.29 692.081,1040.14 696.197,1034.38C700.312,1028.62 705.47,1023.93 711.671,1020.31C717.872,1016.69 725.087,1014.87 733.318,1014.87C740.123,1014.87 745.857,1016.16 750.521,1018.74C755.186,1021.32 758.698,1024.94 761.057,1029.61C763.417,1034.27 764.596,1039.68 764.596,1045.82C764.596,1050.21 763.965,1055.01 762.703,1060.23C761.441,1065.44 759.521,1070.6 756.942,1075.7C754.363,1080.81 751.098,1085.44 747.147,1089.61C743.196,1093.78 738.559,1097.13 733.236,1099.65C727.913,1102.18 721.905,1103.44 715.21,1103.44ZM716.856,1090.27C722.234,1090.27 726.953,1088.84 731.014,1085.99C735.074,1083.14 738.477,1079.49 741.22,1075.04C743.964,1070.6 746.049,1065.93 747.476,1061.05C748.903,1056.17 749.616,1051.64 749.616,1047.47C749.616,1043.19 748.903,1039.62 747.476,1036.77C746.049,1033.91 744.019,1031.75 741.385,1030.27C738.751,1028.79 735.623,1028.04 732.002,1028.04C726.514,1028.04 721.685,1029.44 717.515,1032.24C713.345,1035.04 709.86,1038.63 707.061,1043.02C704.263,1047.41 702.15,1052.02 700.724,1056.85C699.297,1061.68 698.584,1066.13 698.584,1070.19C698.584,1074.47 699.324,1078.12 700.806,1081.13C702.287,1084.15 704.4,1086.43 707.144,1087.97C709.887,1089.5 713.125,1090.27 716.856,1090.27Z" style="fill:rgb(249,110,67);fill-rule:nonzero;"/>
            <path d="M778.26,1038.09C771.236,1038.09 765.31,1037.26 760.481,1035.62C755.652,1033.97 750.659,1031.61 745.5,1028.54C743.854,1027.44 742.949,1026.18 742.784,1024.75C742.62,1023.33 742.976,1022.03 743.854,1020.88C744.732,1019.73 745.83,1018.94 747.147,1018.5C748.464,1018.06 749.726,1018.22 750.933,1018.99C753.786,1020.75 756.64,1022.23 759.493,1023.44C762.347,1024.64 765.584,1025.52 769.206,1026.07C772.827,1026.62 777.217,1026.89 782.375,1026.89C785.339,1026.89 788.768,1026.64 792.664,1026.15C796.56,1025.66 800.566,1024.83 804.682,1023.68C808.797,1022.53 812.556,1021.02 815.958,1019.15C817.385,1018.39 818.537,1018.55 819.415,1019.65C820.293,1020.75 820.732,1022.09 820.732,1023.68C820.732,1025.27 820.019,1026.45 818.592,1027.22C810.471,1031.61 802.816,1034.52 795.627,1035.95C788.439,1037.37 782.65,1038.09 778.26,1038.09Z" style="fill:rgb(249,110,67);fill-rule:nonzero;"/>
            <path d="M789.454,1185.75C783.638,1185.75 778.891,1184.13 775.214,1180.89C771.538,1177.66 769.7,1173.46 769.7,1168.3C769.7,1164.46 770.44,1160.65 771.922,1156.86C773.404,1153.07 775.571,1149.26 778.425,1145.42C781.278,1141.58 784.872,1137.65 789.207,1133.65C793.542,1129.64 798.563,1125.44 804.27,1121.06C807.123,1118.97 809.84,1116.99 812.419,1115.13C814.998,1113.26 817.604,1111.42 820.238,1109.61C822.872,1107.8 825.616,1105.96 828.469,1104.1L838.347,1073.48C833.627,1080.17 828.936,1085.72 824.271,1090.11C819.607,1094.5 815.135,1097.76 810.855,1099.9C806.575,1102.04 802.514,1103.11 798.673,1103.11C794.942,1103.11 791.704,1102.12 788.96,1100.15C786.217,1098.17 784.077,1095.37 782.54,1091.75C781.004,1088.13 780.235,1083.85 780.235,1078.91C780.235,1073.86 781.004,1068.43 782.54,1062.61C784.077,1056.8 786.381,1051.09 789.454,1045.49C792.527,1039.9 796.259,1034.79 800.648,1030.18C805.038,1025.58 810.114,1021.87 815.876,1019.07C821.638,1016.27 827.975,1014.87 834.89,1014.87C837.084,1014.87 839.334,1015.07 841.639,1015.45C843.944,1015.84 846.303,1016.41 848.718,1017.18C851.132,1017.95 853.437,1018.88 855.632,1019.98L856.126,1018.99C856.674,1017.67 857.497,1016.77 858.595,1016.27C859.692,1015.78 861.119,1015.53 862.875,1015.53C866.277,1015.53 868.445,1016.05 869.378,1017.1C870.31,1018.14 870.393,1019.76 869.625,1021.95L830.609,1141.47C827.975,1149.37 825.287,1156.12 822.543,1161.72C819.799,1167.31 816.836,1171.89 813.653,1175.46C810.471,1179.03 806.877,1181.63 802.871,1183.28C798.865,1184.93 794.393,1185.75 789.454,1185.75ZM791.924,1173.08C795.216,1173.08 798.289,1171.98 801.142,1169.78C803.996,1167.59 806.712,1164.1 809.291,1159.33C811.87,1154.56 814.312,1148.38 816.617,1140.81L822.708,1122.21C821.171,1123.19 819.635,1124.24 818.098,1125.34C816.562,1126.43 815.025,1127.53 813.489,1128.63C811.952,1129.73 810.416,1130.88 808.879,1132.08C804.49,1135.6 800.731,1138.94 797.603,1142.13C794.475,1145.31 791.951,1148.27 790.03,1151.02C788.11,1153.76 786.683,1156.37 785.75,1158.84C784.817,1161.3 784.351,1163.69 784.351,1166C784.351,1167.31 784.625,1168.52 785.174,1169.62C785.723,1170.71 786.573,1171.57 787.726,1172.17C788.878,1172.77 790.277,1173.08 791.924,1173.08ZM803.447,1089.94C807.288,1089.94 811.705,1087.94 816.699,1083.93C821.692,1079.93 827.015,1074.08 832.667,1066.4C838.319,1058.72 844.053,1049.28 849.87,1038.09L852.01,1031.5C848.279,1029.96 844.794,1028.98 841.557,1028.54C838.319,1028.1 835.329,1027.88 832.585,1027.88C827.866,1027.88 823.558,1028.98 819.662,1031.17C815.766,1033.37 812.309,1036.25 809.291,1039.81C806.273,1043.38 803.721,1047.33 801.636,1051.67C799.551,1056 797.96,1060.31 796.862,1064.59C795.765,1068.87 795.216,1072.77 795.216,1076.28C795.216,1079.02 795.545,1081.44 796.204,1083.52C796.862,1085.61 797.822,1087.2 799.085,1088.3C800.347,1089.39 801.801,1089.94 803.447,1089.94Z" style="fill:rgb(249,110,67);fill-rule:nonzero;"/>
            <path d="M837.853,1112.82C835.768,1114.03 834.066,1114.31 832.749,1113.65C831.432,1112.99 830.555,1111.89 830.116,1110.35C829.677,1108.82 829.704,1107.2 830.198,1105.5C830.692,1103.8 831.652,1102.56 833.079,1101.79C841.858,1096.75 849.678,1091.89 856.537,1087.22C863.396,1082.56 869.432,1077.92 874.645,1073.32C879.858,1068.7 884.495,1063.93 888.556,1058.99C892.617,1054.05 896.211,1048.81 899.339,1043.27C902.466,1037.73 905.292,1031.72 907.817,1025.25C908.365,1023.82 909.326,1023 910.697,1022.78C912.069,1022.56 913.469,1022.78 914.895,1023.44C916.322,1024.09 917.447,1025.05 918.27,1026.32C919.093,1027.58 919.175,1028.98 918.517,1030.51C915.115,1038.74 911.219,1046.4 906.829,1053.48C902.439,1060.56 897.116,1067.28 890.861,1073.64C884.605,1080.01 877.17,1086.38 868.554,1092.74C859.939,1099.11 849.705,1105.8 837.853,1112.82Z" style="fill:rgb(249,110,67);fill-rule:nonzero;"/>
            <path d="M942.716,1103.11C937.887,1103.11 934.321,1102.23 932.016,1100.48C929.711,1098.72 928.23,1096.47 927.571,1093.73C926.913,1090.98 926.83,1088.16 927.324,1085.25C927.818,1082.34 928.449,1079.79 929.217,1077.6C929.656,1076.28 930.479,1074.14 931.687,1071.17C932.894,1068.21 934.266,1064.84 935.802,1061.05C937.339,1057.26 938.848,1053.4 940.329,1049.44C941.811,1045.49 943.045,1041.87 944.033,1038.58C944.911,1035.29 945.103,1033.01 944.609,1031.75C944.115,1030.49 942.716,1029.86 940.411,1029.86C937.887,1029.86 935.198,1030.38 932.345,1031.42C929.492,1032.46 926.528,1033.5 923.456,1034.55C920.383,1035.59 917.145,1036.11 913.743,1036.11C911.767,1036.11 910.066,1035.29 908.64,1033.64C907.213,1032 906.088,1029.88 905.265,1027.3C904.442,1024.72 904.03,1022.01 904.03,1019.15C904.03,1016.85 904.414,1014.68 905.183,1012.65C905.951,1010.62 907.186,1008.95 908.887,1007.63C910.588,1006.31 912.755,1005.65 915.389,1005.65C917.584,1005.65 919.34,1006.37 920.657,1007.8C921.974,1009.22 922.632,1011.03 922.632,1013.23C922.632,1014.65 922.44,1016.22 922.056,1017.92C921.672,1019.62 920.876,1021.35 919.669,1023.11C920.657,1023.11 922.111,1022.75 924.032,1022.03C925.952,1021.32 928.202,1020.47 930.781,1019.48C933.36,1018.5 936.104,1017.64 939.012,1016.93C941.92,1016.22 944.801,1015.86 947.655,1015.86C951.057,1015.86 953.773,1016.69 955.804,1018.33C957.834,1019.98 959.068,1022.47 959.507,1025.82C959.946,1029.17 959.453,1033.53 958.026,1038.91C957.258,1041.98 956.133,1045.52 954.651,1049.53C953.17,1053.53 951.633,1057.54 950.042,1061.54C948.45,1065.55 947.024,1069.17 945.762,1072.41C944.5,1075.65 943.649,1078.03 943.21,1079.57C942.222,1082.86 941.783,1085.55 941.893,1087.64C942.003,1089.72 943.32,1090.76 945.844,1090.76C947.38,1090.76 948.505,1091.39 949.219,1092.66C949.932,1093.92 950.206,1095.35 950.042,1096.94C949.877,1098.53 949.191,1099.96 947.984,1101.22C946.777,1102.48 945.021,1103.11 942.716,1103.11Z" style="fill:rgb(249,110,67);fill-rule:nonzero;"/>
            <path d="M942.716,1103.11C941.18,1103.11 940.027,1102.48 939.259,1101.22C938.491,1099.96 938.189,1098.53 938.354,1096.94C938.518,1095.35 939.204,1093.92 940.411,1092.66C941.619,1091.39 943.375,1090.76 945.679,1090.76C948.533,1090.76 951.551,1089.72 954.733,1087.64C957.916,1085.55 961.181,1082.64 964.528,1078.91C967.876,1075.18 971.305,1070.79 974.817,1065.74C978.329,1060.69 981.896,1055.21 985.518,1049.28C986.396,1047.85 987.603,1047.25 989.139,1047.47C990.676,1047.69 991.938,1048.38 992.926,1049.53C993.913,1050.68 993.968,1051.97 993.09,1053.4C988.371,1061.63 983.899,1068.87 979.674,1075.12C975.448,1081.38 971.333,1086.57 967.327,1090.68C963.321,1094.8 959.315,1097.9 955.31,1099.98C951.304,1102.07 947.106,1103.11 942.716,1103.11Z" style="fill:rgb(249,110,67);fill-rule:nonzero;"/>
            <path d="M996.712,1103.11C992.98,1103.11 989.743,1102.12 986.999,1100.15C984.255,1098.17 982.115,1095.37 980.579,1091.75C979.042,1088.13 978.274,1083.85 978.274,1078.91C978.274,1073.86 979.042,1068.43 980.579,1062.61C982.115,1056.8 984.42,1051.09 987.493,1045.49C990.566,1039.9 994.297,1034.79 998.687,1030.18C1003.08,1025.58 1008.15,1021.87 1013.92,1019.07C1019.68,1016.27 1026.01,1014.87 1032.93,1014.87C1037.1,1014.87 1041.6,1015.62 1046.43,1017.1C1051.26,1018.58 1055.59,1020.64 1059.43,1023.27L1056.47,1034.63C1051.09,1031.78 1046.32,1029.94 1042.15,1029.11C1037.98,1028.29 1034.14,1027.88 1030.62,1027.88C1025.9,1027.88 1021.6,1028.98 1017.7,1031.17C1013.81,1033.37 1010.35,1036.25 1007.33,1039.81C1004.31,1043.38 1001.76,1047.33 999.675,1051.67C997.59,1056 995.998,1060.31 994.901,1064.59C993.803,1068.87 993.255,1072.77 993.255,1076.28C993.255,1079.02 993.584,1081.44 994.242,1083.52C994.901,1085.61 995.861,1087.2 997.123,1088.3C998.385,1089.39 999.84,1089.94 1001.49,1089.94C1005.55,1089.94 1010.16,1087.72 1015.31,1083.27C1020.47,1078.83 1025.99,1072.27 1031.86,1063.6C1037.73,1054.93 1043.74,1044.4 1049.88,1032L1055.97,1038.09C1048.84,1052.79 1041.79,1064.95 1034.82,1074.55C1027.85,1084.15 1021.19,1091.31 1014.82,1096.03C1008.46,1100.75 1002.42,1103.11 996.712,1103.11ZM1047.41,1103.11C1042.48,1103.11 1038.83,1102.21 1036.47,1100.39C1034.11,1098.58 1032.63,1096.28 1032.02,1093.48C1031.42,1090.68 1031.39,1087.72 1031.94,1084.59C1032.49,1081.46 1033.26,1078.58 1034.25,1075.95L1052.68,1020.8C1053.45,1018.61 1054.36,1017.18 1055.4,1016.52C1056.44,1015.86 1058.01,1015.53 1060.09,1015.53C1063.49,1015.53 1065.66,1016.05 1066.59,1017.1C1067.53,1018.14 1067.61,1019.76 1066.84,1021.95L1048.73,1075.78C1046.87,1081.49 1046.02,1085.41 1046.18,1087.55C1046.35,1089.69 1047.69,1090.76 1050.21,1090.76C1051.75,1090.76 1052.9,1091.39 1053.67,1092.66C1054.44,1093.92 1054.74,1095.35 1054.58,1096.94C1054.41,1098.53 1053.75,1099.96 1052.6,1101.22C1051.45,1102.48 1049.72,1103.11 1047.41,1103.11Z" style="fill:rgb(249,110,67);fill-rule:nonzero;"/>
            <path d="M1047.41,1103.11C1045.88,1103.11 1044.73,1102.48 1043.96,1101.22C1043.19,1099.96 1042.89,1098.53 1043.05,1096.94C1043.22,1095.35 1043.9,1093.92 1045.11,1092.66C1046.32,1091.39 1048.07,1090.76 1050.38,1090.76C1053.01,1090.76 1056,1089.45 1059.35,1086.81C1062.7,1084.18 1066.62,1080.04 1071.12,1074.38C1075.62,1068.73 1080.94,1061.33 1087.09,1052.16C1093.23,1043 1100.42,1031.88 1108.65,1018.83C1109.64,1017.29 1110.93,1016.63 1112.52,1016.85C1114.11,1017.07 1115.4,1017.78 1116.39,1018.99C1117.38,1020.2 1117.43,1021.51 1116.56,1022.94C1107.23,1038.74 1099.19,1051.83 1092.44,1062.2C1085.69,1072.57 1079.79,1080.75 1074.74,1086.73C1069.69,1092.71 1065,1096.94 1060.67,1099.41C1056.33,1101.88 1051.91,1103.11 1047.41,1103.11Z" style="fill:rgb(249,110,67);fill-rule:nonzero;"/>
            <path d="M1151.62,1103.11C1148.77,1103.11 1146.21,1102.95 1143.96,1102.62C1141.71,1102.29 1139.55,1101.99 1137.46,1101.71C1135.38,1101.44 1133.15,1101.33 1130.8,1101.38C1128.44,1101.44 1125.66,1101.9 1122.48,1102.78L1123.31,1097.02C1125.61,1096.03 1128.22,1095.15 1131.12,1094.39C1134.03,1093.62 1136.97,1092.96 1139.93,1092.41C1142.89,1091.86 1145.67,1091.45 1148.25,1091.18C1150.82,1090.9 1152.99,1090.76 1154.75,1090.76C1155.74,1090.76 1156.39,1091.39 1156.72,1092.66C1157.05,1093.92 1157.05,1095.35 1156.72,1096.94C1156.39,1098.53 1155.79,1099.96 1154.91,1101.22C1154.03,1102.48 1152.94,1103.11 1151.62,1103.11ZM1050.54,1185.75C1048.46,1185.75 1046.24,1185.26 1043.88,1184.27C1041.52,1183.28 1039.51,1181.58 1037.87,1179.17C1036.22,1176.75 1035.4,1173.4 1035.4,1169.12C1035.4,1166.38 1035.89,1163.34 1036.88,1159.99C1037.87,1156.64 1039.32,1152.94 1041.24,1148.88C1043.16,1144.82 1045.55,1140.48 1048.4,1135.87C1051.26,1131.26 1054.52,1126.35 1058.2,1121.14C1061.87,1115.92 1065.91,1110.49 1070.3,1104.84C1074.69,1099.19 1079.41,1093.34 1084.45,1087.31L1106.18,1020.8C1106.95,1018.61 1107.86,1017.18 1108.9,1016.52C1109.94,1015.86 1111.51,1015.53 1113.59,1015.53C1117,1015.53 1119.16,1016.05 1120.1,1017.1C1121.03,1018.14 1121.11,1019.76 1120.34,1021.95L1110.14,1053.07C1116.61,1043.96 1122.48,1036.6 1127.75,1031.01C1133.02,1025.41 1137.96,1021.32 1142.57,1018.74C1147.17,1016.16 1151.67,1014.87 1156.07,1014.87C1161.55,1014.87 1165.89,1016.69 1169.07,1020.31C1172.25,1023.93 1173.84,1029.03 1173.84,1035.62C1173.84,1041.76 1172.86,1048.02 1170.88,1054.38C1168.9,1060.75 1166.13,1066.84 1162.57,1072.66C1159,1078.47 1154.83,1083.66 1150.06,1088.21C1145.28,1092.77 1140.04,1096.39 1134.34,1099.08C1128.63,1101.77 1122.7,1103.11 1116.56,1103.11C1112.5,1103.11 1108.79,1102.45 1105.44,1101.14C1102.1,1099.82 1099,1098.12 1096.14,1096.03L1077.54,1153.32C1074.8,1161.77 1072.08,1168.36 1069.39,1173.08C1066.7,1177.79 1063.82,1181.09 1060.75,1182.95C1057.68,1184.82 1054.27,1185.75 1050.54,1185.75ZM1049.39,1169.62C1049.39,1170.93 1049.64,1171.89 1050.13,1172.5C1050.62,1173.1 1051.37,1173.4 1052.35,1173.4C1053.12,1173.4 1053.89,1173.1 1054.66,1172.5C1055.43,1171.89 1056.22,1170.77 1057.05,1169.12C1057.87,1167.48 1058.88,1165.09 1060.09,1161.96C1061.3,1158.84 1062.72,1154.69 1064.37,1149.53L1076.22,1112.99C1073.37,1117.27 1070.71,1121.41 1068.24,1125.42C1065.77,1129.42 1063.52,1133.24 1061.49,1136.86C1059.46,1140.48 1057.7,1143.91 1056.22,1147.15C1054.74,1150.38 1053.51,1153.38 1052.52,1156.12C1051.53,1158.86 1050.76,1161.36 1050.21,1163.61C1049.66,1165.86 1049.39,1167.86 1049.39,1169.62ZM1100.92,1084.34C1103.55,1086.32 1106.24,1087.8 1108.98,1088.79C1111.73,1089.78 1114.58,1090.27 1117.54,1090.27C1122.15,1090.27 1126.54,1089.12 1130.71,1086.81C1134.88,1084.51 1138.7,1081.46 1142.15,1077.68C1145.61,1073.89 1148.6,1069.69 1151.13,1065.08C1153.65,1060.47 1155.6,1055.78 1156.97,1051.01C1158.34,1046.24 1159.03,1041.76 1159.03,1037.59C1159.03,1034.41 1158.4,1032.02 1157.13,1030.43C1155.87,1028.84 1153.98,1028.04 1151.45,1028.04C1149.59,1028.04 1147.59,1028.59 1145.45,1029.69C1143.31,1030.79 1140.87,1032.63 1138.12,1035.2C1135.38,1037.78 1132.22,1041.24 1128.65,1045.58C1125.09,1049.91 1121.03,1055.26 1116.47,1061.63C1111.92,1067.99 1106.73,1075.56 1100.92,1084.34Z" style="fill:rgb(249,110,67);fill-rule:nonzero;"/>
            <path d="M1151.79,1103.11C1149.7,1103.11 1148.3,1102.48 1147.59,1101.22C1146.87,1099.96 1146.71,1098.53 1147.09,1096.94C1147.48,1095.35 1148.33,1093.92 1149.64,1092.66C1150.96,1091.39 1152.66,1090.76 1154.75,1090.76C1156.72,1090.76 1159.16,1089.69 1162.07,1087.55C1164.98,1085.41 1168.58,1081.96 1172.86,1077.18C1177.14,1072.41 1182.29,1066.13 1188.33,1058.33C1194.37,1050.54 1201.5,1040.99 1209.73,1029.69C1211.05,1027.93 1212.45,1027.22 1213.93,1027.55C1215.41,1027.88 1216.45,1028.81 1217.06,1030.35C1217.66,1031.88 1217.3,1033.59 1215.99,1035.45C1206.99,1048.62 1199.17,1059.57 1192.53,1068.29C1185.89,1077.02 1180.13,1083.93 1175.24,1089.04C1170.36,1094.14 1166.05,1097.76 1162.32,1099.9C1158.59,1102.04 1155.08,1103.11 1151.79,1103.11Z" style="fill:rgb(249,110,67);fill-rule:nonzero;"/>
            <path d="M1263.07,1103.11C1258.24,1103.11 1254.64,1102.21 1252.29,1100.39C1249.93,1098.58 1248.47,1096.28 1247.92,1093.48C1247.37,1090.68 1247.37,1087.72 1247.92,1084.59C1248.47,1081.46 1249.18,1078.58 1250.06,1075.95L1261.26,1043.68C1262.25,1040.83 1262.88,1038.22 1263.15,1035.86C1263.42,1033.5 1263.04,1031.61 1262,1030.18C1260.96,1028.76 1258.9,1028.04 1255.83,1028.04C1252.09,1028.04 1247.95,1029.69 1243.4,1032.98C1238.84,1036.28 1234.15,1040.88 1229.32,1046.81C1224.49,1052.74 1219.75,1059.73 1215.08,1067.8C1210.42,1075.87 1206.11,1084.73 1202.16,1094.39L1201.34,1079.57C1205.51,1069.36 1209.95,1060.28 1214.67,1052.33C1219.39,1044.37 1224.33,1037.59 1229.49,1032C1234.64,1026.4 1239.88,1022.14 1245.21,1019.24C1250.53,1016.33 1255.88,1014.87 1261.26,1014.87C1266.31,1014.87 1270.23,1016.11 1273.03,1018.58C1275.83,1021.05 1277.36,1024.7 1277.64,1029.53C1277.91,1034.35 1276.84,1040.34 1274.43,1047.47L1264.71,1075.78C1262.74,1081.49 1261.83,1085.41 1262,1087.55C1262.16,1089.69 1263.56,1090.76 1266.2,1090.76C1267.73,1090.76 1268.86,1091.39 1269.57,1092.66C1270.28,1093.92 1270.56,1095.35 1270.39,1096.94C1270.23,1098.53 1269.54,1099.96 1268.34,1101.22C1267.13,1102.48 1265.37,1103.11 1263.07,1103.11ZM1193.1,1102.78C1191.35,1102.78 1189.7,1102.4 1188.17,1101.63C1186.63,1100.86 1186.19,1099.43 1186.85,1097.35L1228.66,969.274C1232.72,956.434 1237.25,947.105 1242.24,941.289C1247.24,935.472 1253.25,932.564 1260.27,932.564C1263.89,932.564 1266.99,933.387 1269.57,935.033C1272.15,936.679 1274.18,938.957 1275.66,941.865C1277.14,944.773 1277.88,948.093 1277.88,951.824C1277.88,954.788 1277.44,957.943 1276.57,961.29C1275.69,964.637 1274.45,968.149 1272.86,971.826C1271.27,975.502 1269.3,979.344 1266.94,983.349C1264.58,987.355 1261.83,991.416 1258.71,995.531C1255.58,999.647 1252.15,1003.82 1248.42,1008.04C1244.69,1012.27 1240.6,1016.55 1236.15,1020.88C1231.71,1025.22 1226.96,1029.58 1221.91,1033.97L1200.84,1098.5C1200.4,1099.93 1199.63,1101 1198.54,1101.71C1197.44,1102.42 1195.63,1102.78 1193.1,1102.78ZM1228,1015.37C1231.52,1011.75 1234.84,1008.07 1237.96,1004.34C1241.09,1000.61 1244,996.876 1246.69,993.144C1249.38,989.413 1251.82,985.764 1254.01,982.197C1256.21,978.63 1258.05,975.146 1259.53,971.744C1261.01,968.341 1262.16,965.076 1262.99,961.949C1263.81,958.821 1264.22,955.885 1264.22,953.141C1264.22,951.605 1264,950.288 1263.56,949.191C1263.12,948.093 1262.46,947.243 1261.59,946.639C1260.71,946.035 1259.61,945.734 1258.29,945.734C1256.54,945.734 1254.84,946.474 1253.19,947.956C1251.55,949.437 1249.84,952.154 1248.09,956.105C1246.33,960.056 1244.25,965.707 1241.83,973.061L1228,1015.37Z" style="fill:rgb(249,110,67);fill-rule:nonzero;"/>
            <path d="M1263.07,1103.11C1261.53,1103.11 1260.38,1102.48 1259.61,1101.22C1258.84,1099.96 1258.54,1098.53 1258.71,1096.94C1258.87,1095.35 1259.56,1093.92 1260.76,1092.66C1261.97,1091.39 1263.73,1090.76 1266.03,1090.76C1268.66,1090.76 1271.66,1089.45 1275,1086.81C1278.35,1084.18 1282.27,1080.04 1286.77,1074.38C1291.27,1068.73 1296.6,1061.33 1302.74,1052.16C1308.89,1043 1316.08,1031.88 1324.31,1018.83C1325.3,1017.29 1326.58,1016.63 1328.18,1016.85C1329.77,1017.07 1331.06,1017.78 1332.04,1018.99C1333.03,1020.2 1333.09,1021.51 1332.21,1022.94C1322.88,1038.74 1314.84,1051.83 1308.09,1062.2C1301.34,1072.57 1295.44,1080.75 1290.39,1086.73C1285.35,1092.71 1280.65,1096.94 1276.32,1099.41C1271.99,1101.88 1267.57,1103.11 1263.07,1103.11Z" style="fill:rgb(249,110,67);fill-rule:nonzero;"/>
            <path d="M1360.85,1099.16C1363.05,1097.62 1365.24,1096.17 1367.44,1094.8C1369.63,1093.43 1371.75,1092.11 1373.78,1090.85C1375.81,1089.59 1377.75,1088.43 1379.62,1087.39C1381.49,1086.35 1383.19,1085.44 1384.72,1084.67C1386.48,1083.8 1387.88,1083.69 1388.92,1084.34C1389.96,1085 1390.68,1086.07 1391.06,1087.55C1391.44,1089.04 1391.42,1090.49 1390.98,1091.92C1390.54,1093.34 1389.77,1094.44 1388.67,1095.21C1386.48,1096.42 1384.17,1097.76 1381.76,1099.24C1379.35,1100.72 1376.85,1102.26 1374.27,1103.85C1371.69,1105.44 1369.11,1107.09 1366.53,1108.79C1363.95,1110.49 1361.35,1112.22 1358.71,1113.98L1360.85,1099.16ZM1312.78,1185.75C1306.97,1185.75 1302.22,1184.13 1298.54,1180.89C1294.87,1177.66 1293.03,1173.46 1293.03,1168.3C1293.03,1164.46 1293.77,1160.65 1295.25,1156.86C1296.73,1153.07 1298.9,1149.26 1301.75,1145.42C1304.61,1141.58 1308.2,1137.65 1312.54,1133.65C1316.87,1129.64 1321.89,1125.44 1327.6,1121.06C1330.45,1118.97 1333.17,1116.99 1335.75,1115.13C1338.33,1113.26 1340.93,1111.42 1343.57,1109.61C1346.2,1107.8 1348.94,1105.96 1351.8,1104.1L1363.16,1069.03C1359.76,1074.41 1356.27,1079.19 1352.7,1083.36C1349.14,1087.53 1345.49,1091.07 1341.76,1093.98C1338.03,1096.88 1334.29,1099.08 1330.56,1100.56C1326.83,1102.04 1323.05,1102.78 1319.2,1102.78C1314.16,1102.78 1310.23,1101.55 1307.43,1099.08C1304.63,1096.61 1303.13,1092.93 1302.91,1088.05C1302.69,1083.16 1303.73,1077.21 1306.03,1070.19L1322.5,1020.8C1323.27,1018.61 1324.17,1017.18 1325.21,1016.52C1326.26,1015.86 1327.82,1015.53 1329.9,1015.53C1333.31,1015.53 1335.47,1016.05 1336.41,1017.1C1337.34,1018.14 1337.42,1019.76 1336.65,1021.95L1319.2,1073.97C1318.22,1076.72 1317.59,1079.3 1317.31,1081.71C1317.04,1084.12 1317.42,1086.05 1318.46,1087.47C1319.51,1088.9 1321.51,1089.61 1324.47,1089.61C1328.31,1089.61 1332.48,1087.97 1336.98,1084.67C1341.48,1081.38 1346.12,1076.77 1350.89,1070.85C1355.67,1064.92 1360.36,1057.92 1364.97,1049.86C1369.58,1041.79 1373.86,1032.98 1377.81,1023.44L1378.63,1020.8C1379.4,1018.61 1380.31,1017.18 1381.35,1016.52C1382.39,1015.86 1383.95,1015.53 1386.04,1015.53C1389.44,1015.53 1391.61,1016.05 1392.54,1017.1C1393.48,1018.14 1393.56,1019.76 1392.79,1021.95L1353.94,1141.47C1351.41,1149.37 1348.75,1156.12 1345.95,1161.72C1343.16,1167.31 1340.17,1171.89 1336.98,1175.46C1333.8,1179.03 1330.21,1181.63 1326.2,1183.28C1322.19,1184.93 1317.72,1185.75 1312.78,1185.75ZM1315.25,1173.08C1318.55,1173.08 1321.62,1171.98 1324.47,1169.78C1327.33,1167.59 1330.01,1164.13 1332.54,1159.41C1335.06,1154.69 1337.53,1148.49 1339.95,1140.81L1346.04,1122.21C1344.5,1123.19 1342.96,1124.24 1341.43,1125.34C1339.89,1126.43 1338.36,1127.53 1336.82,1128.63C1335.28,1129.73 1333.75,1130.88 1332.21,1132.08C1327.82,1135.71 1324.06,1139.08 1320.93,1142.21C1317.81,1145.34 1315.28,1148.27 1313.36,1151.02C1311.44,1153.76 1310.01,1156.37 1309.08,1158.84C1308.15,1161.3 1307.68,1163.69 1307.68,1166C1307.68,1167.31 1307.95,1168.52 1308.5,1169.62C1309.05,1170.71 1309.9,1171.57 1311.06,1172.17C1312.21,1172.77 1313.61,1173.08 1315.25,1173.08Z" style="fill:rgb(249,110,67);fill-rule:nonzero;"/>
        </g>
        <g transform="matrix(1,0,0,1,-36.7468,-603.755)">
            <path d="M272.731,1100.29C274.157,1103.91 275.803,1106.55 277.669,1108.19C279.535,1109.84 281.346,1110.72 283.102,1110.83L283.102,1114.12C276.517,1113.79 268.176,1113.63 258.079,1113.63C246.885,1113.63 238.544,1113.79 233.057,1114.12L233.057,1110.83C237.227,1110.61 240.191,1110.09 241.946,1109.26C243.702,1108.44 244.58,1106.99 244.58,1104.9C244.58,1102.93 243.922,1100.29 242.605,1097L232.728,1070L196.84,1070L192.56,1081.36C189.487,1089.26 187.951,1095.35 187.951,1099.63C187.951,1103.69 189.185,1106.52 191.655,1108.11C194.124,1109.7 197.773,1110.61 202.602,1110.83L202.602,1114.12C195.139,1113.79 188.335,1113.63 182.189,1113.63C177.141,1113.63 172.97,1113.79 169.678,1114.12L169.678,1110.83C175.056,1109.84 179.775,1104.08 183.835,1093.54L221.369,997.239C222.576,997.349 224.497,997.404 227.131,997.404C229.765,997.404 231.63,997.349 232.728,997.239L272.731,1100.29ZM231.575,1066.71L215.278,1022.26L198.157,1066.71L231.575,1066.71Z" style="fill-rule:nonzero;"/>
            <path d="M390.764,1017.32C387.142,1017.87 384.481,1018.7 382.78,1019.79C381.078,1020.89 379.926,1022.65 379.323,1025.06C378.719,1027.47 378.417,1031.15 378.417,1036.09L378.417,1114.45L373.972,1114.29L369.692,1114.45L303.844,1032.63L303.844,1092.06C303.844,1096.89 304.283,1100.54 305.161,1103.01C306.039,1105.48 307.63,1107.26 309.935,1108.36C312.24,1109.46 315.861,1110.28 320.8,1110.83L320.8,1114.12C315.861,1113.79 309.606,1113.63 302.033,1113.63C295.997,1113.63 291.223,1113.79 287.711,1114.12L287.711,1110.83C291.333,1110.28 293.994,1109.46 295.695,1108.36C297.396,1107.26 298.549,1105.51 299.152,1103.09C299.756,1100.68 300.058,1097 300.058,1092.06L300.058,1031.48C300.058,1027.31 299.756,1024.29 299.152,1022.43C298.549,1020.56 297.396,1019.3 295.695,1018.64C293.994,1017.98 291.333,1017.54 287.711,1017.32L287.711,1014.03C291.223,1014.36 295.997,1014.52 302.033,1014.52C309.825,1014.52 316.52,1014.36 322.117,1014.03L374.631,1079.22L374.631,1036.09C374.631,1031.26 374.192,1027.61 373.314,1025.14C372.436,1022.67 370.817,1020.89 368.458,1019.79C366.098,1018.7 362.504,1017.87 357.675,1017.32L357.675,1014.03C362.504,1014.36 368.759,1014.52 376.442,1014.52C382.588,1014.52 387.362,1014.36 390.764,1014.03L390.764,1017.32Z" style="fill-rule:nonzero;"/>
            <path d="M450.192,1017.32C446.46,1017.54 443.772,1017.98 442.125,1018.64C440.479,1019.3 439.354,1020.56 438.751,1022.43C438.147,1024.29 437.845,1027.31 437.845,1031.48L437.845,1096.67C437.845,1100.84 438.147,1103.86 438.751,1105.72C439.354,1107.59 440.479,1108.85 442.125,1109.51C443.772,1110.17 446.46,1110.61 450.192,1110.83L450.192,1114.12C444.595,1113.79 436.473,1113.63 425.828,1113.63C414.304,1113.63 405.799,1113.79 400.312,1114.12L400.312,1110.83C404.043,1110.61 406.732,1110.17 408.378,1109.51C410.024,1108.85 411.149,1107.59 411.753,1105.72C412.356,1103.86 412.658,1100.84 412.658,1096.67L412.658,1031.48C412.658,1027.31 412.356,1024.29 411.753,1022.43C411.149,1020.56 409.997,1019.3 408.296,1018.64C406.595,1017.98 403.933,1017.54 400.312,1017.32L400.312,1014.03C405.689,1014.36 414.195,1014.52 425.828,1014.52C436.473,1014.52 444.595,1014.36 450.192,1014.03L450.192,1017.32Z" style="fill-rule:nonzero;"/>
            <path d="M558.018,1014.03C557.25,1022.37 556.866,1029.83 556.866,1036.42C556.866,1042.57 557.031,1047.39 557.36,1050.91L553.574,1050.91C552.037,1042.57 550.199,1036.04 548.059,1031.32C545.919,1026.6 543.175,1023.17 539.828,1021.03C536.481,1018.89 532.173,1017.82 526.905,1017.82L521.802,1017.82L521.802,1095.02C521.802,1099.63 522.241,1102.98 523.119,1105.07C523.997,1107.15 525.533,1108.58 527.728,1109.35C529.923,1110.11 533.49,1110.61 538.429,1110.83L538.429,1114.12C532.502,1113.79 522.625,1113.63 508.797,1113.63C494.859,1113.63 485.256,1113.79 479.988,1114.12L479.988,1110.83C484.927,1110.61 488.494,1110.11 490.689,1109.35C492.883,1108.58 494.42,1107.15 495.298,1105.07C496.176,1102.98 496.615,1099.63 496.615,1095.02L496.615,1017.82L491.512,1017.82C486.244,1017.82 481.936,1018.89 478.589,1021.03C475.242,1023.17 472.498,1026.6 470.358,1031.32C468.218,1036.04 466.379,1042.57 464.843,1050.91L461.057,1050.91C461.386,1047.39 461.551,1042.57 461.551,1036.42C461.551,1029.83 461.167,1022.37 460.398,1014.03C469.946,1014.36 486.079,1014.52 508.797,1014.52C531.953,1014.52 548.361,1014.36 558.018,1014.03Z" style="fill-rule:nonzero;"/>
            <path d="M646.42,1100.29C649.602,1107.1 653.059,1110.61 656.791,1110.83L656.791,1114.12C651.523,1113.79 644.335,1113.63 635.226,1113.63C623.483,1113.63 614.813,1113.79 609.215,1114.12L609.215,1110.83C612.837,1110.61 615.526,1110.03 617.282,1109.1C619.038,1108.17 619.916,1106.6 619.916,1104.41C619.916,1102.43 619.202,1099.96 617.776,1097L609.545,1078.23L574.974,1078.23L572.999,1082.68C569.926,1089.92 568.39,1095.57 568.39,1099.63C568.39,1103.37 569.597,1106.11 572.011,1107.86C574.426,1109.62 577.992,1110.61 582.712,1110.83L582.712,1114.12C576.456,1113.79 570.145,1113.63 563.78,1113.63C557.854,1113.63 553.409,1113.79 550.446,1114.12L550.446,1110.83C553.08,1110.28 555.522,1108.61 557.771,1105.81C560.021,1103.01 562.408,1098.81 564.932,1093.21L599.667,1013.7C600.545,1013.81 601.808,1013.87 603.454,1013.87C605.21,1013.87 606.472,1013.81 607.24,1013.7L646.42,1100.29ZM608.063,1074.94L592.26,1038.89L576.456,1074.94L608.063,1074.94Z" style="fill-rule:nonzero;"/>
            <path d="M662.059,993.947C665.022,993.947 667.491,994.935 669.467,996.91C671.442,998.885 672.43,1001.52 672.43,1004.81C672.43,1007.45 672.128,1009.92 671.524,1012.22C670.921,1014.52 669.906,1017.54 668.479,1021.27C666.394,1026.43 664.638,1031.7 663.211,1037.08L660.906,1037.08C659.809,1033.24 658.163,1028.35 655.968,1022.43C654.431,1018.48 653.334,1015.29 652.675,1012.88C652.017,1010.46 651.688,1007.83 651.688,1004.98C651.688,1001.68 652.675,999.023 654.651,996.992C656.626,994.962 659.096,993.947 662.059,993.947Z" style="fill-rule:nonzero;"/>
            <path d="M726.755,1011.73C731.803,1011.73 736.111,1012.27 739.677,1013.37C743.244,1014.47 746.619,1015.95 749.802,1017.82C751.009,1018.48 752.079,1019.02 753.012,1019.46C753.945,1019.9 754.74,1020.12 755.399,1020.12C756.386,1020.12 757.155,1019.55 757.703,1018.39C758.252,1017.24 758.691,1015.4 759.02,1012.88L762.807,1012.88C762.258,1019.46 761.984,1030.88 761.984,1047.12L758.197,1047.12C756.99,1037.24 753.807,1029.48 748.649,1023.83C743.491,1018.17 736.742,1015.35 728.401,1015.35C722.914,1015.35 718.496,1016.56 715.149,1018.97C711.802,1021.38 710.128,1024.51 710.128,1028.35C710.128,1031.32 711.033,1034.03 712.844,1036.5C714.655,1038.97 717.042,1041.25 720.005,1043.33C722.968,1045.42 727.303,1048.16 733.01,1051.56L736.632,1053.7C743.217,1057.44 748.594,1060.81 752.765,1063.83C756.935,1066.85 760.392,1070.41 763.136,1074.53C765.88,1078.64 767.251,1083.28 767.251,1088.44C767.251,1097.44 763.52,1104.35 756.057,1109.18C748.594,1114.01 738.772,1116.42 726.59,1116.42C721.322,1116.42 716.768,1115.85 712.927,1114.7C709.085,1113.54 705.189,1111.98 701.239,1110C698.495,1108.69 696.574,1108.03 695.477,1108.03C694.489,1108.03 693.721,1108.61 693.172,1109.76C692.623,1110.91 692.184,1112.75 691.855,1115.27L688.069,1115.27C688.508,1109.13 688.727,1095.74 688.727,1075.11L692.514,1075.11C693.282,1086.74 696.437,1095.9 701.979,1102.6C707.522,1109.29 715.341,1112.64 725.438,1112.64C730.376,1112.64 734.657,1111.38 738.278,1108.85C741.9,1106.33 743.711,1102.6 743.711,1097.66C743.711,1093.27 742.01,1089.48 738.607,1086.3C735.205,1083.12 729.389,1079.11 721.158,1074.28C710.732,1068.36 702.748,1062.7 697.205,1057.33C691.663,1051.95 688.892,1045.64 688.892,1038.39C688.892,1029.83 692.431,1023.25 699.51,1018.64C706.589,1014.03 715.67,1011.73 726.755,1011.73Z" style="fill-rule:nonzero;"/>
            <path d="M954.261,998.062C959.419,998.062 963.644,997.898 966.937,997.568L966.937,1000.86C964.193,1001.96 961.531,1004.07 958.952,1007.2C956.373,1010.33 954.206,1014.74 952.45,1020.45L923.477,1114.45C922.269,1114.34 920.349,1114.29 917.715,1114.29C915.081,1114.29 913.16,1114.34 911.953,1114.45L887.754,1041.03L863.39,1114.45C862.183,1114.34 860.262,1114.29 857.628,1114.29C854.994,1114.29 853.074,1114.34 851.867,1114.45L814.991,1011.4C813.675,1007.77 812.083,1005.14 810.217,1003.5C808.352,1001.85 806.486,1000.97 804.62,1000.86L804.62,997.568C811.205,997.898 819.381,998.062 829.149,998.062C838.368,998.062 845.117,997.898 849.397,997.568L849.397,1000.86C845.556,1001.41 843.636,1003.55 843.636,1007.28C843.636,1009.04 844.129,1011.51 845.117,1014.69L869.152,1084.32L885.778,1035.27L877.383,1009.75C876.285,1006.57 874.996,1004.35 873.514,1003.08C872.033,1001.82 870.304,1001.08 868.329,1000.86L868.329,997.568C874.474,997.898 882.321,998.062 891.869,998.062C902.625,998.062 910.526,997.898 915.575,997.568L915.575,1000.86C911.624,1000.97 908.77,1001.44 907.015,1002.26C905.259,1003.08 904.381,1004.65 904.381,1006.95C904.381,1008.93 904.929,1011.51 906.027,1014.69L928.58,1083.5L944.219,1033.79C946.743,1025.55 948.005,1019.19 948.005,1014.69C948.005,1009.97 946.825,1006.54 944.466,1004.4C942.106,1002.26 938.567,1001.08 933.848,1000.86L933.848,997.568C941.311,997.898 948.115,998.062 954.261,998.062Z" style="fill-rule:nonzero;"/>
            <path d="M1021.43,1017.32C1017.7,1017.54 1015.01,1017.98 1013.36,1018.64C1011.71,1019.3 1010.59,1020.56 1009.99,1022.43C1009.38,1024.29 1009.08,1027.31 1009.08,1031.48L1009.08,1096.67C1009.08,1100.84 1009.38,1103.86 1009.99,1105.72C1010.59,1107.59 1011.71,1108.85 1013.36,1109.51C1015.01,1110.17 1017.7,1110.61 1021.43,1110.83L1021.43,1114.12C1015.83,1113.79 1007.71,1113.63 997.062,1113.63C985.539,1113.63 977.033,1113.79 971.546,1114.12L971.546,1110.83C975.277,1110.61 977.966,1110.17 979.612,1109.51C981.259,1108.85 982.383,1107.59 982.987,1105.72C983.591,1103.86 983.892,1100.84 983.892,1096.67L983.892,1031.48C983.892,1027.31 983.591,1024.29 982.987,1022.43C982.383,1020.56 981.231,1019.3 979.53,1018.64C977.829,1017.98 975.168,1017.54 971.546,1017.32L971.546,1014.03C976.923,1014.36 985.429,1014.52 997.062,1014.52C1007.71,1014.52 1015.83,1014.36 1021.43,1014.03L1021.43,1017.32Z" style="fill-rule:nonzero;"/>
            <path d="M1082.5,1017.32C1078.77,1017.54 1076.08,1017.98 1074.43,1018.64C1072.79,1019.3 1071.66,1020.56 1071.06,1022.43C1070.46,1024.29 1070.15,1027.31 1070.15,1031.48L1070.15,1098.65C1070.15,1102.05 1070.46,1104.57 1071.06,1106.22C1071.66,1107.86 1072.68,1108.96 1074.11,1109.51C1075.53,1110.06 1077.67,1110.33 1080.53,1110.33L1086.94,1110.33C1094.19,1110.33 1100.28,1107.73 1105.22,1102.51C1110.16,1097.3 1113.5,1088.88 1115.26,1077.25L1119.05,1077.25C1118.72,1080.87 1118.55,1085.37 1118.55,1090.74C1118.55,1097.55 1118.94,1105.34 1119.7,1114.12C1112.57,1113.79 1100.55,1113.63 1083.65,1113.63C1061.05,1113.63 1044.03,1113.79 1032.62,1114.12L1032.62,1110.83C1036.35,1110.61 1039.04,1110.17 1040.69,1109.51C1042.33,1108.85 1043.46,1107.59 1044.06,1105.72C1044.66,1103.86 1044.97,1100.84 1044.97,1096.67L1044.97,1031.48C1044.97,1027.31 1044.66,1024.29 1044.06,1022.43C1043.46,1020.56 1042.31,1019.3 1040.6,1018.64C1038.9,1017.98 1036.24,1017.54 1032.62,1017.32L1032.62,1014.03C1038.22,1014.36 1046.89,1014.52 1058.63,1014.52C1068.95,1014.52 1076.9,1014.36 1082.5,1014.03L1082.5,1017.32Z" style="fill-rule:nonzero;"/>
            <path d="M1179.46,1014.03C1198.67,1014.03 1213.05,1018.17 1222.59,1026.46C1232.14,1034.75 1236.91,1046.85 1236.91,1062.76C1236.91,1073.08 1234.61,1082.1 1230,1089.84C1225.39,1097.58 1218.64,1103.56 1209.75,1107.78C1200.86,1112.01 1190.27,1114.12 1177.98,1114.12L1167.44,1113.95C1160.42,1113.74 1155.26,1113.63 1151.97,1113.63C1142.2,1113.63 1134.74,1113.79 1129.58,1114.12L1129.58,1110.83C1133.31,1110.61 1136,1110.17 1137.65,1109.51C1139.29,1108.85 1140.42,1107.59 1141.02,1105.72C1141.63,1103.86 1141.93,1100.84 1141.93,1096.67L1141.93,1031.48C1141.93,1027.31 1141.63,1024.29 1141.02,1022.43C1140.42,1020.56 1139.29,1019.3 1137.65,1018.64C1136,1017.98 1133.31,1017.54 1129.58,1017.32L1129.58,1014.03C1133.75,1014.36 1139.62,1014.52 1147.2,1014.52L1163,1014.36C1171.12,1014.14 1176.61,1014.03 1179.46,1014.03ZM1177.32,1016.99C1174.47,1016.99 1172.33,1017.38 1170.9,1018.15C1169.48,1018.91 1168.49,1020.29 1167.94,1022.26C1167.39,1024.24 1167.12,1027.2 1167.12,1031.15L1167.12,1097C1167.12,1100.95 1167.39,1103.91 1167.94,1105.89C1168.49,1107.86 1169.48,1109.24 1170.9,1110C1172.33,1110.77 1174.52,1111.16 1177.49,1111.16C1185.94,1111.16 1192.58,1109.37 1197.41,1105.81C1202.24,1102.24 1205.64,1097 1207.61,1090.09C1209.59,1083.17 1210.58,1074.28 1210.58,1063.42C1210.58,1047.39 1208.05,1035.65 1203,1028.19C1197.95,1020.73 1189.39,1016.99 1177.32,1016.99Z" style="fill-rule:nonzero;"/>
        </g>
        <g transform="matrix(1,0,0,1,-40.78,-495.42)">
            <path d="M347.88,1060.78C361.708,1062.21 371.476,1065.23 377.182,1069.84C382.889,1074.45 385.743,1080.21 385.743,1087.12C385.743,1095.57 381.956,1102.18 374.384,1106.96C366.811,1111.73 356.001,1114.12 341.954,1114.12C338.881,1114.12 336.247,1114.07 334.052,1113.95C326.589,1113.74 319.346,1113.63 312.322,1113.63C302.554,1113.63 295.092,1113.79 289.933,1114.12L289.933,1110.83C293.665,1110.61 296.354,1110.17 298,1109.51C299.646,1108.85 300.771,1107.59 301.375,1105.72C301.978,1103.86 302.28,1100.84 302.28,1096.67L302.28,1031.48C302.28,1027.31 301.978,1024.29 301.375,1022.43C300.771,1020.56 299.646,1019.3 298,1018.64C296.354,1017.98 293.665,1017.54 289.933,1017.32L289.933,1014.03C295.092,1014.36 302.445,1014.52 311.993,1014.52L330.759,1014.36C332.954,1014.25 335.424,1014.2 338.167,1014.2C351.337,1014.2 361.132,1016.14 367.552,1020.04C373.972,1023.94 377.182,1029.51 377.182,1036.75C377.182,1042.35 374.878,1047.15 370.268,1051.15C365.659,1055.16 358.196,1058.26 347.88,1060.45L347.88,1060.78ZM336.027,1017.32C333.613,1017.32 331.802,1017.71 330.595,1018.48C329.388,1019.24 328.564,1020.62 328.125,1022.59C327.686,1024.57 327.467,1027.53 327.467,1031.48L327.467,1060.45L332.899,1060.45C339.923,1060.45 344.78,1058.53 347.468,1054.69C350.157,1050.85 351.502,1045.47 351.502,1038.56C351.502,1031.42 350.294,1026.1 347.88,1022.59C345.466,1019.08 341.515,1017.32 336.027,1017.32ZM336.192,1110.33C344.203,1110.33 350.075,1108.33 353.806,1104.33C357.538,1100.32 359.403,1094.37 359.403,1086.46C359.403,1078.78 357.51,1072.99 353.724,1069.1C349.938,1065.2 343.929,1063.25 335.698,1063.25L327.467,1063.25L327.467,1096.67C327.467,1100.62 327.686,1103.53 328.125,1105.39C328.564,1107.26 329.388,1108.55 330.595,1109.26C331.802,1109.98 333.668,1110.33 336.192,1110.33Z" style="fill-rule:nonzero;"/>
            <path d="M483.692,1100.29C486.875,1107.1 490.332,1110.61 494.063,1110.83L494.063,1114.12C488.795,1113.79 481.607,1113.63 472.498,1113.63C460.755,1113.63 452.085,1113.79 446.488,1114.12L446.488,1110.83C450.109,1110.61 452.798,1110.03 454.554,1109.1C456.31,1108.17 457.188,1106.6 457.188,1104.41C457.188,1102.43 456.475,1099.96 455.048,1097L446.817,1078.23L412.247,1078.23L410.271,1082.68C407.198,1089.92 405.662,1095.57 405.662,1099.63C405.662,1103.37 406.869,1106.11 409.284,1107.86C411.698,1109.62 415.265,1110.61 419.984,1110.83L419.984,1114.12C413.728,1113.79 407.418,1113.63 401.052,1113.63C395.126,1113.63 390.681,1113.79 387.718,1114.12L387.718,1110.83C390.352,1110.28 392.794,1108.61 395.044,1105.81C397.294,1103.01 399.681,1098.81 402.205,1093.21L436.94,1013.7C437.818,1013.81 439.08,1013.87 440.726,1013.87C442.482,1013.87 443.744,1013.81 444.512,1013.7L483.692,1100.29ZM445.335,1074.94L429.532,1038.89L413.728,1074.94L445.335,1074.94Z" style="fill-rule:nonzero;"/>
            <path d="M549.54,1011.73C555.906,1011.73 561.064,1012.63 565.015,1014.44C568.966,1016.25 573.026,1018.91 577.197,1022.43C578.404,1023.41 579.447,1023.91 580.325,1023.91C582.519,1023.91 583.946,1020.62 584.605,1014.03L588.391,1014.03C587.952,1020.62 587.732,1032.14 587.732,1048.6L583.946,1048.6C582.849,1042.67 581.751,1038.37 580.654,1035.68C579.556,1032.99 577.91,1030.27 575.715,1027.53C572.642,1023.91 569.158,1021.08 565.262,1019.05C561.366,1017.02 557.332,1016.01 553.162,1016.01C547.126,1016.01 541.858,1017.95 537.358,1021.85C532.859,1025.75 529.374,1031.32 526.905,1038.56C524.436,1045.8 523.201,1054.42 523.201,1064.4C523.201,1074.5 524.546,1083.14 527.234,1090.33C529.923,1097.52 533.627,1102.95 538.346,1106.63C543.065,1110.31 548.388,1112.14 554.314,1112.14C558.595,1112.14 562.792,1111.13 566.908,1109.1C571.023,1107.07 574.563,1104.24 577.526,1100.62C579.721,1097.88 581.312,1094.91 582.3,1091.73C583.288,1088.55 584.221,1083.94 585.099,1077.9L588.885,1077.9C588.885,1095.13 589.104,1107.21 589.543,1114.12L585.757,1114.12C585.428,1110.72 584.934,1108.22 584.275,1106.63C583.617,1105.04 582.739,1104.24 581.641,1104.24C580.764,1104.24 579.666,1104.74 578.349,1105.72C574.288,1109.13 570.063,1111.76 565.673,1113.63C561.283,1115.49 556.016,1116.42 549.87,1116.42C539.444,1116.42 530.225,1114.39 522.213,1110.33C514.202,1106.27 507.974,1100.4 503.529,1092.72C499.084,1085.04 496.862,1075.82 496.862,1065.06C496.862,1054.64 499.166,1045.36 503.776,1037.24C508.385,1029.12 514.668,1022.84 522.625,1018.39C530.582,1013.95 539.553,1011.73 549.54,1011.73Z" style="fill-rule:nonzero;"/>
            <path d="M704.284,1100.79C706.369,1103.53 708.18,1105.62 709.716,1107.04C711.253,1108.47 713.174,1109.73 715.478,1110.83L715.478,1114.12C707.906,1113.79 699.51,1113.63 690.291,1113.63C682.499,1113.63 675.036,1113.79 667.903,1114.12L667.903,1110.83C671.415,1110.72 673.884,1110.42 675.311,1109.92C676.737,1109.43 677.451,1108.69 677.451,1107.7C677.451,1106.71 676.847,1105.29 675.64,1103.42L654.075,1072.47C652.209,1069.84 650.343,1067.83 648.478,1066.46C646.612,1065.09 644.143,1064.35 641.07,1064.24L641.07,1096.67C641.07,1100.84 641.371,1103.86 641.975,1105.72C642.579,1107.59 643.704,1108.85 645.35,1109.51C646.996,1110.17 649.685,1110.61 653.416,1110.83L653.416,1114.12C647.819,1113.79 639.698,1113.63 629.052,1113.63C617.639,1113.63 609.133,1113.79 603.536,1114.12L603.536,1110.83C607.267,1110.61 609.956,1110.17 611.602,1109.51C613.249,1108.85 614.374,1107.59 614.977,1105.72C615.581,1103.86 615.883,1100.84 615.883,1096.67L615.883,1031.48C615.883,1027.31 615.581,1024.29 614.977,1022.43C614.374,1020.56 613.221,1019.3 611.52,1018.64C609.819,1017.98 607.158,1017.54 603.536,1017.32L603.536,1014.03C609.133,1014.36 617.639,1014.52 629.052,1014.52C639.698,1014.52 647.819,1014.36 653.416,1014.03L653.416,1017.32C649.685,1017.54 646.996,1017.98 645.35,1018.64C643.704,1019.3 642.579,1020.56 641.975,1022.43C641.371,1024.29 641.07,1027.31 641.07,1031.48L641.07,1060.95C645.789,1060.51 650.124,1059.3 654.075,1057.33C658.026,1055.35 662.251,1052.22 666.75,1047.94L676.792,1037.74C681.072,1033.57 683.213,1029.78 683.213,1026.38C683.213,1023.74 682.06,1021.6 679.756,1019.96C677.451,1018.31 674.488,1017.38 670.866,1017.16L670.866,1014.03C678.768,1014.36 687.218,1014.52 696.218,1014.52C702.034,1014.52 706.918,1014.36 710.869,1014.03L710.869,1017.16C707.028,1018.04 703.351,1019.55 699.839,1021.69C696.327,1023.83 692.541,1026.82 688.48,1030.66L668.232,1050.58L704.284,1100.79Z" style="fill-rule:nonzero;"/>
            <path d="M799.929,1014.52C805.416,1014.52 809.641,1014.36 812.604,1014.03L812.604,1017.32C810.41,1018.31 808.187,1020.15 805.937,1022.84C803.688,1025.53 801.026,1029.56 797.953,1034.94L779.186,1069.51L779.186,1095.68C779.186,1100.07 779.571,1103.28 780.339,1105.31C781.107,1107.34 782.534,1108.71 784.619,1109.43C786.704,1110.14 789.997,1110.61 794.496,1110.83L794.496,1114.12C788.789,1113.79 779.351,1113.63 766.181,1113.63C752.792,1113.63 743.628,1113.79 738.69,1114.12L738.69,1110.83C743.189,1110.61 746.482,1110.14 748.567,1109.43C750.652,1108.71 752.079,1107.34 752.847,1105.31C753.615,1103.28 753.999,1100.07 753.999,1095.68L753.999,1077.9L724.532,1026.71C722.667,1023.52 721.02,1021.27 719.594,1019.96C718.167,1018.64 716.631,1017.82 714.984,1017.49L714.984,1014.03C721.789,1014.58 728.264,1014.85 734.41,1014.85C743.08,1014.85 752.737,1014.58 763.383,1014.03L763.383,1017.49C760.09,1017.49 757.511,1017.79 755.646,1018.39C753.78,1019 752.847,1020.18 752.847,1021.93C752.847,1023.36 753.451,1025.06 754.658,1027.04L777.046,1066.05L787.582,1046.79C791.753,1039.11 793.838,1032.8 793.838,1027.86C793.838,1021.16 789.722,1017.65 781.491,1017.32L781.491,1014.03C788.186,1014.36 794.332,1014.52 799.929,1014.52Z" style="fill-rule:nonzero;"/>
            <path d="M893.104,1100.29C896.287,1107.1 899.744,1110.61 903.475,1110.83L903.475,1114.12C898.207,1113.79 891.019,1113.63 881.91,1113.63C870.167,1113.63 861.497,1113.79 855.9,1114.12L855.9,1110.83C859.521,1110.61 862.21,1110.03 863.966,1109.1C865.722,1108.17 866.6,1106.6 866.6,1104.41C866.6,1102.43 865.887,1099.96 864.46,1097L856.229,1078.23L821.659,1078.23L819.683,1082.68C816.61,1089.92 815.074,1095.57 815.074,1099.63C815.074,1103.37 816.281,1106.11 818.695,1107.86C821.11,1109.62 824.677,1110.61 829.396,1110.83L829.396,1114.12C823.14,1113.79 816.83,1113.63 810.464,1113.63C804.538,1113.63 800.093,1113.79 797.13,1114.12L797.13,1110.83C799.764,1110.28 802.206,1108.61 804.456,1105.81C806.706,1103.01 809.093,1098.81 811.617,1093.21L846.352,1013.7C847.23,1013.81 848.492,1013.87 850.138,1013.87C851.894,1013.87 853.156,1013.81 853.924,1013.7L893.104,1100.29ZM854.747,1074.94L838.944,1038.89L823.14,1074.94L854.747,1074.94Z" style="fill-rule:nonzero;"/>
            <path d="M1014.26,1107.21C1011.63,1110.28 1008.67,1112.58 1005.38,1114.12C1002.08,1115.66 997.968,1116.42 993.029,1116.42C986.773,1116.42 981.944,1115.22 978.542,1112.8C975.14,1110.39 972.945,1107.15 971.957,1103.09L967.183,1083.66C965.976,1077.52 964.138,1073.43 961.669,1071.4C959.199,1069.37 955.55,1068.36 950.721,1068.36L945.289,1068.36L945.289,1096.67C945.289,1100.84 945.591,1103.86 946.194,1105.72C946.798,1107.59 947.95,1108.85 949.651,1109.51C951.352,1110.17 954.014,1110.61 957.635,1110.83L957.635,1114.12C951.38,1113.79 942.435,1113.63 930.802,1113.63C920.596,1113.63 912.913,1113.79 907.755,1114.12L907.755,1110.83C911.487,1110.61 914.176,1110.17 915.822,1109.51C917.468,1108.85 918.593,1107.59 919.196,1105.72C919.8,1103.86 920.102,1100.84 920.102,1096.67L920.102,1031.48C920.102,1027.31 919.8,1024.29 919.196,1022.43C918.593,1020.56 917.468,1019.3 915.822,1018.64C914.176,1017.98 911.487,1017.54 907.755,1017.32L907.755,1014.03C912.913,1014.36 920.267,1014.52 929.815,1014.52L948.581,1014.36C950.776,1014.25 953.246,1014.2 955.989,1014.2C970.695,1014.2 981.698,1016.42 988.996,1020.86C996.294,1025.31 999.943,1031.48 999.943,1039.38C999.943,1046.19 997.035,1052.17 991.218,1057.33C985.401,1062.48 975.689,1065.78 962.08,1067.2C963.617,1067.2 965.208,1067.37 966.854,1067.7C974.756,1068.58 980.984,1070.33 985.539,1072.96C990.093,1075.6 993.084,1079.77 994.51,1085.48L997.968,1100.13C998.736,1103.2 999.669,1105.39 1000.77,1106.71C1001.86,1108.03 1003.24,1108.69 1004.88,1108.69C1007.19,1108.69 1009.55,1107.48 1011.96,1105.07L1014.26,1107.21ZM953.849,1017.32C951.435,1017.32 949.624,1017.71 948.417,1018.48C947.209,1019.24 946.386,1020.62 945.947,1022.59C945.508,1024.57 945.289,1027.53 945.289,1031.48L945.289,1065.06L952.368,1065.06C960.489,1065.06 966.059,1062.98 969.077,1058.81C972.095,1054.64 973.604,1048.77 973.604,1041.19C973.604,1033.18 972.095,1027.2 969.077,1023.25C966.059,1019.3 960.983,1017.32 953.849,1017.32Z" style="fill-rule:nonzero;"/>
            <path d="M1067.27,1014.03C1086.48,1014.03 1100.86,1018.17 1110.4,1026.46C1119.95,1034.75 1124.73,1046.85 1124.73,1062.76C1124.73,1073.08 1122.42,1082.1 1117.81,1089.84C1113.2,1097.58 1106.45,1103.56 1097.56,1107.78C1088.67,1112.01 1078.08,1114.12 1065.79,1114.12L1055.26,1113.95C1048.23,1113.74 1043.07,1113.63 1039.78,1113.63C1030.01,1113.63 1022.55,1113.79 1017.39,1114.12L1017.39,1110.83C1021.12,1110.61 1023.81,1110.17 1025.46,1109.51C1027.11,1108.85 1028.23,1107.59 1028.83,1105.72C1029.44,1103.86 1029.74,1100.84 1029.74,1096.67L1029.74,1031.48C1029.74,1027.31 1029.44,1024.29 1028.83,1022.43C1028.23,1020.56 1027.11,1019.3 1025.46,1018.64C1023.81,1017.98 1021.12,1017.54 1017.39,1017.32L1017.39,1014.03C1021.56,1014.36 1027.43,1014.52 1035.01,1014.52L1050.81,1014.36C1058.93,1014.14 1064.42,1014.03 1067.27,1014.03ZM1065.13,1016.99C1062.28,1016.99 1060.14,1017.38 1058.71,1018.15C1057.29,1018.91 1056.3,1020.29 1055.75,1022.26C1055.2,1024.24 1054.93,1027.2 1054.93,1031.15L1054.93,1097C1054.93,1100.95 1055.2,1103.91 1055.75,1105.89C1056.3,1107.86 1057.29,1109.24 1058.71,1110C1060.14,1110.77 1062.33,1111.16 1065.3,1111.16C1073.75,1111.16 1080.39,1109.37 1085.22,1105.81C1090.05,1102.24 1093.45,1097 1095.42,1090.09C1097.4,1083.17 1098.39,1074.28 1098.39,1063.42C1098.39,1047.39 1095.86,1035.65 1090.81,1028.19C1085.77,1020.73 1077.2,1016.99 1065.13,1016.99Z" style="fill-rule:nonzero;"/>
        </g>
    </g>
</svg>
